<svg width="20" height="20" viewBox="0 0 20 20" fill="none" xmlns="http://www.w3.org/2000/svg">
<path d="M3.33336 16.6667C2.87502 16.6667 2.48252 16.5033 2.15585 16.1767C1.82919 15.85 1.66613 15.4578 1.66669 15V5.00001C1.66669 4.54168 1.83002 4.14918 2.15669 3.82251C2.48336 3.49584 2.87558 3.33279 3.33336 3.33334H16.6667C17.125 3.33334 17.5175 3.49668 17.8442 3.82334C18.1709 4.15001 18.3339 4.54223 18.3334 5.00001V15C18.3334 15.4583 18.17 15.8508 17.8434 16.1775C17.5167 16.5042 17.1245 16.6672 16.6667 16.6667H3.33336ZM10 10.8333L3.33336 6.66668V15H16.6667V6.66668L10 10.8333ZM10 9.16668L16.6667 5.00001H3.33336L10 9.16668ZM3.33336 6.66668V5.00001V15V6.66668Z" fill="white"/>
</svg>
