<svg width="17" height="17" viewBox="0 0 17 17" fill="none" xmlns="http://www.w3.org/2000/svg">
<g clip-path="url(#clip0_1231_200)">
<path d="M9.25707 16.6793L16.6792 9.2569C17.1066 8.82973 17.1066 8.13645 16.6792 7.70861L15.1378 6.16746L13.1827 8.12258C13.3361 8.57709 13.2332 9.09799 12.871 9.46011C12.5066 9.82412 11.9813 9.9262 11.5253 9.76904L9.64087 11.6533C9.79803 12.1092 9.69649 12.6353 9.33181 12.9992C8.82316 13.5083 7.99859 13.5083 7.48967 12.9992C7.36864 12.8782 7.27263 12.7346 7.20713 12.5765C7.14163 12.4184 7.10791 12.249 7.10791 12.0779C7.10791 11.9068 7.14163 11.7373 7.20713 11.5792C7.27263 11.4211 7.36864 11.2775 7.48967 11.1565C7.67154 10.9748 7.9031 10.8509 8.15521 10.8004C8.40733 10.75 8.66873 10.7753 8.90652 10.8731L10.6637 9.1159L6.03902 9.11563C5.97624 9.24312 5.89309 9.35952 5.79284 9.46025C5.2842 9.96902 4.45989 9.96902 3.95017 9.46025C3.44153 8.95133 3.44153 8.12649 3.95017 7.61811C4.45976 7.10933 5.28407 7.10933 5.79284 7.61811C5.91493 7.74001 6.01153 7.88499 6.077 8.04461L10.7445 8.04461C10.8098 7.88486 10.9064 7.73983 11.0288 7.61811C11.4139 7.23269 11.9795 7.1399 12.453 7.3376L14.3805 5.41008L9.29141 0.320673C9.08602 0.115346 8.80748 -3.58097e-07 8.51706 -3.70792e-07C8.22664 -3.83486e-07 7.94811 0.115346 7.74271 0.320673L0.320575 7.74322C-0.106863 8.17066 -0.106863 8.86366 0.320575 9.29177L7.70824 16.6794C7.91369 16.8847 8.19225 17 8.48268 17C8.77311 17 9.05165 16.8846 9.25707 16.6793Z" fill="white"/>
</g>
<defs>
<clipPath id="clip0_1231_200">
<rect width="17" height="17" fill="white"/>
</clipPath>
</defs>
</svg>
