<svg width="17" height="17" viewBox="0 0 17 17" fill="none" xmlns="http://www.w3.org/2000/svg">
<g clip-path="url(#clip0_1320_407)">
<path d="M6.65014 15.9793L6.65014 10.8757H10.3458V15.9793C10.3458 16.5407 10.7615 17 11.2697 17H14.0414C14.5495 17 14.9653 16.5407 14.9653 15.9793V8.83428H16.5359C16.9609 8.83428 17.1642 8.25248 16.8408 7.94626L9.11696 0.260282C8.76588 -0.0867607 8.23002 -0.0867607 7.87893 0.260282L0.155079 7.94626C-0.159049 8.25248 0.0349716 8.83428 0.459968 8.83428H2.03061L2.03061 15.9793C2.03061 16.5407 2.44637 17 2.95451 17H5.72623C6.23438 17 6.65014 16.5407 6.65014 15.9793Z" fill="white"/>
</g>
<defs>
<clipPath id="clip0_1320_407">
<rect width="17" height="17" fill="white"/>
</clipPath>
</defs>
</svg>
