<svg width="17" height="17" viewBox="0 0 17 17" fill="none" xmlns="http://www.w3.org/2000/svg">
<g clip-path="url(#clip0_1231_126)">
<path fill-rule="evenodd" clip-rule="evenodd" d="M17 0H0V17H17V0ZM5.77086 13.4191L4.46996 14.2064L4.46989 14.2063C4.84648 15.0051 5.58831 15.6669 6.8663 15.6669C8.28141 15.6669 9.25134 14.9138 9.25134 13.2591V7.80463H7.65381V13.2365C7.65381 14.0353 7.32277 14.2406 6.79783 14.2406C6.25018 14.2406 6.02188 13.8641 5.77086 13.4191ZM11.4198 13.2821L10.1191 14.0352L10.119 14.0353C10.5868 14.9596 11.5454 15.6671 13.0289 15.6671C14.5466 15.6671 15.6763 14.8798 15.6763 13.4419C15.6763 12.1068 14.9117 11.5135 13.5537 10.9314L13.1544 10.7603C12.4697 10.4636 12.173 10.2695 12.173 9.79024C12.173 9.4023 12.4697 9.1056 12.9376 9.1056C13.3941 9.1056 13.6907 9.29957 13.9646 9.79024L15.2085 8.99138C14.6836 8.06707 13.9533 7.71326 12.9377 7.71326C11.5112 7.71326 10.5983 8.62621 10.5983 9.82444C10.5983 11.1253 11.3629 11.7416 12.5155 12.2321L12.9148 12.4035C13.6451 12.7229 14.0787 12.9169 14.0787 13.4646C14.0787 13.9211 13.6567 14.2521 12.9947 14.2521C12.2074 14.2521 11.7623 13.8413 11.4198 13.2821Z" fill="white"/>
</g>
<defs>
<clipPath id="clip0_1231_126">
<rect width="17" height="17" fill="white"/>
</clipPath>
</defs>
</svg>
