<svg width="17" height="17" viewBox="0 0 17 17" fill="none" xmlns="http://www.w3.org/2000/svg">
<g clip-path="url(#clip0_1583_370)">
<path d="M4.26301 8.16279C4.19661 8.99891 4.93116 9.61476 5.43246 9.61476C5.93446 9.59136 7.88956 7.94378 7.88956 7.94378C8.80909 6.78084 8.81307 6.26374 8.81307 5.8573C8.73637 4.0629 5.46719 6.79595 4.26301 8.16279ZM12.3501 7.46825C12.7939 6.52907 12.1969 5.48592 10.8982 6.40216C9.86628 7.05806 8.53028 8.40737 7.89089 8.93556C7.59432 9.53458 8.3461 11.1785 9.53743 10.3105C10.9456 9.28745 11.9739 8.32545 12.3501 7.46825ZM13.5587 1.7868L13.8447 2.42069e-06L17 2.97237e-06L17 3.26168L15.8436 3.27549L14.4513 7.99146C14.5379 9.65587 13.6939 9.68296 13.5861 10.4467C13.3151 12.3661 11.1686 13.9367 10.3479 13.9367C9.80053 13.9208 9.4004 13.2935 9.266 12.7468C10.8093 11.0399 12.8846 9.69844 12.8846 9.69844C13.0142 8.80072 12.7294 8.51491 13.6872 7.74994L14.6012 2.94419C13.8206 2.42871 13.4564 2.43671 13.5587 1.7868ZM7.39998 9.74558C8.20024 11.3581 9.35654 11.4001 11.1493 9.34718C11.1919 9.53697 11.2385 9.73582 11.1529 10.2133C7.50603 13.4751 4.07117 16.6497 3.02563 17L-2.97237e-06 17L-2.83049e-06 16.1885C0.492068 15.5061 4.5305 12.1752 7.39998 9.74558ZM12.7898 12.8677C12.6256 14.2634 11.3531 15.4847 9.65268 17L4.26368 17L8.8068 13.1732C9.59105 14.958 10.9841 14.6995 12.7898 12.8677M6.41683 9.69963L-2.65223e-06 15.169L-2.0318e-06 11.6206L3.77619 8.54649C3.9782 9.6907 5.21571 10.6982 6.41683 9.6997" fill="white"/>
</g>
<defs>
<clipPath id="clip0_1583_370">
<rect width="17" height="17" fill="white"/>
</clipPath>
</defs>
</svg>
