<svg width="20" height="20" viewBox="0 0 20 20" fill="none" xmlns="http://www.w3.org/2000/svg">
<path d="M16.913 3.45597C16.913 3.45597 18.4547 2.85479 18.3257 4.31469C18.2832 4.91587 17.8979 7.0202 17.5979 9.29596L16.5702 16.0379C16.5702 16.0379 16.4844 17.0256 15.7134 17.1974C14.9428 17.3689 13.7865 16.5963 13.5722 16.4244C13.4008 16.2955 10.3603 14.363 9.28971 13.4185C8.98971 13.1606 8.64686 12.6455 9.33257 12.0443L13.8289 7.74995C14.3428 7.23488 14.8567 6.03252 12.7155 7.49242L6.71951 11.5717C6.71951 11.5717 6.0342 12.0015 4.7497 11.615L1.96561 10.7559C1.96561 10.7559 0.937846 10.1118 2.69377 9.46779C6.97665 7.44956 12.2444 5.38848 16.9122 3.45597H16.913Z" fill="white"/>
</svg>
