<svg width="17" height="17" viewBox="0 0 17 17" fill="none" xmlns="http://www.w3.org/2000/svg">
<path fill-rule="evenodd" clip-rule="evenodd" d="M1.06317 0L2.42681 15.3006L8.54864 17L14.6868 15.2982L16.0523 0H1.06317ZM8.55774 4.87289H4.03146L3.99382 4.45093L3.90821 3.49954L3.86328 2.99622H8.55774H8.56439H13.2631L13.2182 3.49954L12.7573 8.67118H12.7569L12.438 12.2388L12.4095 12.5557L8.56928 13.62V13.6206L8.56017 13.6231L4.71635 12.5557L4.45346 9.60925H6.33743L6.471 11.1059L8.56078 11.6705L8.56262 11.67V11.6693L10.6554 11.1046L10.8742 8.67118H8.55774V6.7945H11.041L11.2122 4.87289H8.56439H8.55774ZM8.55771 6.7945V8.67118H6.49403L6.45639 8.24922L6.37139 7.29782L6.32646 6.7945H8.55771Z" fill="white"/>
</svg>
