<svg width="17" height="17" viewBox="0 0 17 17" fill="none" xmlns="http://www.w3.org/2000/svg">
<g clip-path="url(#clip0_1305_369)">
<path d="M8.66665 12.75L3.35415 7.4375L4.84165 5.89687L7.60415 8.65937L7.60416 1.30041e-06L9.72916 1.67196e-06L9.72915 8.65937L12.4917 5.89688L13.9792 7.4375L8.66665 12.75ZM2.29165 17C1.70728 17 1.20719 16.7921 0.791403 16.3763C0.375612 15.9605 0.167362 15.4601 0.166654 14.875L0.166654 11.6875L2.29165 11.6875L2.29165 14.875L15.0417 14.875L15.0417 11.6875L17.1667 11.6875L17.1667 14.875C17.1667 15.4594 16.9588 15.9598 16.543 16.3763C16.1272 16.7928 15.6267 17.0007 15.0417 17L2.29165 17Z" fill="white"/>
</g>
<defs>
<clipPath id="clip0_1305_369">
<rect width="17" height="17" fill="white"/>
</clipPath>
</defs>
</svg>
