<svg width="17" height="17" viewBox="0 0 17 17" fill="none" xmlns="http://www.w3.org/2000/svg">
<path fill-rule="evenodd" clip-rule="evenodd" d="M1.00485 0L2.3691 15.3006L8.49092 17L14.6291 15.2982L15.9952 0H1.00485ZM8.49333 6.92567H6.01679L5.84558 5.00406H8.49333H8.5H13.0263L13.0639 4.5827L13.1495 3.63131L13.1944 3.12738H8.5H8.49333H3.79465L3.83958 3.63131L4.3004 8.80234H8.49333H8.5H10.8041L10.5868 11.2364L8.5 11.7992V11.7992L8.49863 11.7996L8.49333 11.801V11.8011L8.4915 11.8016L6.40172 11.2376L6.26815 9.74099H4.38418L4.64708 12.6868L8.4915 13.7542L8.5 13.7518V13.7517L12.3408 12.6868L12.3687 12.3699L12.8095 7.42959L12.8557 6.92567H12.3499H8.5H8.49333Z" fill="white"/>
</svg>
