<svg width="17" height="17" viewBox="0 0 17 17" fill="none" xmlns="http://www.w3.org/2000/svg">
<g clip-path="url(#clip0_1231_129)">
<path d="M11.0977 13.9774C11.1597 13.7965 11.2172 13.614 11.2701 13.4302C11.3963 13.4611 11.5209 13.4895 11.6434 13.5147C13.6542 13.929 15.2742 13.6582 15.8076 12.7332C16.3189 11.8463 15.7857 10.396 14.5109 8.93118C14.3851 8.78681 14.2556 8.64566 14.1226 8.50784C14.211 8.41557 14.2978 8.32168 14.3827 8.22621C15.7458 6.69103 16.3203 5.15226 15.7854 4.22829C15.2724 3.34223 13.7495 3.07986 11.8438 3.45279C11.6551 3.4899 11.4673 3.53179 11.2807 3.57843C11.2188 3.36062 11.1529 3.15045 11.0828 2.9493C10.4553 1.14943 9.47184 -2.85356e-07 8.45178 -3.29945e-07C7.39824 -3.75996e-07 6.34152 1.23396 5.70076 3.10861C5.64903 3.26059 5.60109 3.41384 5.55699 3.56821C5.356 3.51807 5.15365 3.47356 4.95017 3.43473C3.07752 3.07919 1.59061 3.35684 1.08095 4.2405C0.55461 5.15319 1.09556 6.68505 2.39944 8.1766C2.50545 8.29755 2.61445 8.41583 2.72636 8.53134C2.58235 8.68059 2.44254 8.83383 2.30707 8.99087C1.06381 10.4357 0.561782 11.8627 1.07284 12.7455C1.60071 13.6573 3.19804 13.9537 5.14142 13.5689C5.29367 13.5386 5.44517 13.5046 5.59578 13.467C5.62765 13.5746 5.66045 13.6802 5.69459 13.7831C6.34025 15.732 7.38416 17 8.45177 17C9.47556 17 10.4656 15.8135 11.0977 13.9774ZM6.38388 13.5547C6.35314 13.4617 6.32345 13.3664 6.29457 13.2692C6.9757 13.054 7.69992 12.7637 8.44826 12.4083C9.17872 12.7474 9.89372 13.0266 10.5704 13.2357C10.5201 13.4096 10.467 13.5784 10.411 13.741C9.86942 15.3142 9.06876 16.2738 8.45177 16.2738C7.79462 16.2738 6.9415 15.2374 6.38388 13.5547ZM5.00038 12.8565C4.14108 13.0266 3.36413 13.0509 2.75671 12.9382C2.21091 12.837 1.84707 12.6334 1.70131 12.3816C1.3912 11.8459 1.79428 10.7002 2.85758 9.46455C2.98353 9.31848 3.11351 9.17594 3.24738 9.03709C3.77126 9.51615 4.38027 9.99487 5.05669 10.4621C5.1296 11.2839 5.24887 12.0604 5.41163 12.7645C5.27529 12.7984 5.13817 12.8291 5.00038 12.8565ZM1.7549 5.79567C1.57009 5.27226 1.56478 4.85536 1.71008 4.60335C2.01933 4.06712 3.21325 3.84419 4.8147 4.14826C5.00394 4.18441 5.19215 4.2258 5.37909 4.27238C5.22503 4.96871 5.11426 5.73949 5.04746 6.56326C4.38559 7.03368 3.77724 7.52622 3.24453 8.0226C3.14245 7.91711 3.04299 7.80913 2.94623 7.69874C2.36969 7.03913 1.96063 6.37819 1.7549 5.79567ZM6.38794 3.34355C6.67129 2.5146 7.03951 1.83002 7.44134 1.3608C7.80239 0.939117 8.16092 0.726285 8.45178 0.726285C9.07082 0.726285 9.86039 1.64913 10.397 3.18836C10.4621 3.37516 10.5235 3.57066 10.5812 3.77354C9.88921 3.9863 9.16571 4.26534 8.43411 4.60209C7.69169 4.26096 6.95664 3.97793 6.25652 3.76311C6.29688 3.6222 6.3407 3.48231 6.38794 3.34355ZM11.9833 4.16553C13.6161 3.84605 14.8477 4.05822 15.1568 4.59219C15.4861 5.16089 15.0166 6.4185 13.8396 7.74403C13.7627 7.83047 13.6842 7.9155 13.6042 7.9991C13.0739 7.50517 12.47 7.01715 11.8121 6.55091C11.738 5.75138 11.619 4.98605 11.4595 4.28241C11.6331 4.23905 11.8078 4.20008 11.9833 4.16553ZM10.1725 11.4986C10.4596 11.3324 10.743 11.16 11.0227 10.9816C10.9541 11.524 10.8631 12.0437 10.7518 12.5317C10.2821 12.3852 9.79119 12.2026 9.28783 11.9877C9.58594 11.8305 9.88089 11.6675 10.1725 11.4986ZM13.0851 8.50817C12.7222 8.84312 12.3171 9.17861 11.8775 9.50858C11.9091 8.8392 11.9092 8.16871 11.8779 7.49932C12.3134 7.82963 12.718 8.16797 13.0851 8.50817ZM10.1676 5.49857C9.87832 5.33178 9.58522 5.17176 9.28849 5.01865C9.79006 4.80721 10.2833 4.62626 10.7595 4.4785C10.868 4.96354 10.9568 5.48077 11.0241 6.01973C10.7427 5.83933 10.4571 5.66556 10.1676 5.49857ZM5.8278 6.0352C5.88995 5.47838 5.97409 4.95337 6.07968 4.46848C6.56444 4.61855 7.06814 4.8035 7.58046 5.01952C7.28352 5.17323 6.99023 5.33392 6.70084 5.50143C6.40334 5.67368 6.11195 5.85205 5.8278 6.0352ZM3.76721 8.52822C4.13856 8.18397 4.54941 7.84065 4.99128 7.50537C4.97853 7.83089 4.97202 8.16272 4.97202 8.5C4.97202 8.84651 4.97979 9.18903 4.9948 9.52618C4.54496 9.19514 4.13351 8.86092 3.76721 8.52822ZM7.60662 11.9945C7.08865 12.2217 6.58762 12.4133 6.11115 12.5653C5.99866 12.0725 5.90808 11.5403 5.84081 10.9795C6.12566 11.1592 6.41405 11.3332 6.70582 11.5014C7.00239 11.6724 7.30273 11.8368 7.60662 11.9945ZM7.06867 10.8724C6.62133 10.6149 6.18248 10.3429 5.75283 10.0568C5.71613 9.5387 5.6979 9.01943 5.69817 8.5C5.69817 7.97094 5.71464 7.45636 5.74678 6.96084C6.17545 6.66734 6.61506 6.39016 7.06468 6.12989C7.51192 5.87086 7.96884 5.62896 8.43444 5.40461C8.90016 5.62839 9.35729 5.86962 9.80487 6.12777L9.8048 6.1277C10.2525 6.38576 10.6902 6.66072 11.1171 6.952C11.1553 7.45755 11.1752 7.97599 11.1752 8.49993C11.1752 9.02627 11.1551 9.54543 11.1166 10.0509C10.6904 10.3392 10.2542 10.6124 9.80872 10.87C9.36213 11.129 8.90722 11.3734 8.44474 11.6028C7.97752 11.3758 7.51854 11.1321 7.06867 10.8724ZM15.1785 12.3705C14.8502 12.9397 13.5262 13.1611 11.79 12.8035C11.6793 12.7806 11.5664 12.755 11.452 12.7271C11.6148 12.0217 11.7359 11.2559 11.8111 10.454C12.4763 9.9869 13.0811 9.50287 13.6046 9.01697C13.7274 9.14432 13.847 9.27469 13.9632 9.40797C15.0554 10.6631 15.4867 11.8361 15.1785 12.3705ZM9.96982 8.5C9.96982 9.33838 9.29015 10.018 8.45178 10.018C7.6134 10.018 6.93373 9.33838 6.93373 8.5C6.93373 7.66162 7.6134 6.98195 8.45178 6.98195C9.29015 6.98195 9.96982 7.66162 9.96982 8.5Z" fill="white"/>
</g>
<defs>
<clipPath id="clip0_1231_129">
<rect width="17" height="17" fill="white" transform="translate(17) rotate(90)"/>
</clipPath>
</defs>
</svg>
